Coordinates
version=1
nRows=10
nColumns=40
inDegrees=yes

Units are S.I. units (second, meters, Newtons, ...)
Angles are in degrees.

endheader
time	pelvis_tilt	pelvis_list	pelvis_rotation	pelvis_tx	pelvis_ty	pelvis_tz	hip_flexion_r	hip_adduction_r	hip_rotation_r	knee_angle_r	knee_angle_r_beta	ankle_angle_r	subtalar_angle_r	mtp_angle_r	hip_flexion_l	hip_adduction_l	hip_rotation_l	knee_angle_l	knee_angle_l_beta	ankle_angle_l	subtalar_angle_l	mtp_angle_l	lumbar_extension	lumbar_bending	lumbar_rotation	arm_flex_r	arm_add_r	arm_rot_r	elbow_flex_r	pro_sup_r	wrist_flex_r	wrist_dev_r	arm_flex_l	arm_add_l	arm_rot_l	elbow_flex_l	pro_sup_l	wrist_flex_l	wrist_dev_l
      0.99500000	     -2.55388278	     -5.98899707	     -7.29490648	      1.03299681	      0.92944872	      0.53140324	     14.73733678	      4.51334745	    -10.03220052	     17.59470513	     17.59470513	      6.57870993	      0.72452438	     -6.45178246	      1.99012710	    -12.24906409	    -11.82351961	     30.97895057	     30.97895057	     16.25149248	    -14.71016889	     -0.98791955	     -8.88594722	      8.95531196	      0.20281024	     -0.00041571	    -13.54073722	    -14.14007191	     36.15338425	     46.24570041	      0.00000000	      0.00000000	     16.66701682	    -13.69851842	    -13.52173536	     78.05368415	     47.88011528	      0.00000000	      0.00000000
      1.01257143	     -2.37923046	     -6.08321546	     -6.76820609	      1.03325970	      0.93016045	      0.53490771	     13.89801386	      4.75984316	    -10.46973967	     17.16448955	     17.16448955	      6.85238215	      0.91804702	     -6.50087258	      3.70766369	    -13.03960813	    -10.63939842	     34.84322332	     34.84322332	     14.85754968	    -15.71093767	     -1.57964038	     -9.08610899	      9.01467474	      0.14947453	      0.94488772	    -14.17155808	    -14.35694212	     36.82142724	     46.23703226	      0.00000000	      0.00000000	     15.78567058	    -13.20618495	    -13.05883039	     76.42021166	     47.81601246	      0.00000000	      0.00000000
      1.03014286	     -2.28392673	     -6.09230378	     -6.23908533	      1.03319507	      0.93059391	      0.53813825	     13.22542072	      4.90665679	    -10.92298642	     16.80503707	     16.80503707	      7.03910075	      1.03286322	     -6.89228516	      5.66449961	    -13.67591906	     -9.37085148	     38.77030906	     38.77030906	     13.08640941	    -16.76252821	     -2.43267921	     -9.09542081	      9.03715304	      1.06067165	      0.67973675	    -14.85869579	    -15.58828291	     39.37716971	     46.16798224	      0.00000000	      0.00000000	     16.30383841	    -12.48432272	    -11.12212423	     71.54458972	     47.62398794	      0.00000000	      0.00000000
      1.04771429	     -2.10070088	     -6.21578146	     -5.68973456	      1.03286225	      0.93098211	      0.54121672	     12.49342119	      5.17858221	    -11.33703768	     16.50863563	     16.50863563	      7.34463410	      1.06301479	     -6.94488454	      7.63590886	    -14.38307102	     -8.09464158	     42.74095361	     42.74095361	     11.57464680	    -17.43694529	     -2.41629223	     -9.37624431	      9.07186759	      0.92388016	      1.97912134	    -15.51815330	    -15.72416202	     40.04379569	     46.15735425	      0.00000000	      0.00000000	     15.14385089	    -12.02402531	    -10.82183530	     69.94833528	     47.56966467	      0.00000000	      0.00000000
      1.06528571	     -2.07714238	     -6.14389879	     -5.14128537	      1.03221826	      0.93107133	      0.54394014	     12.05259279	      5.23696866	    -11.69007380	     16.34512730	     16.34512730	      7.59730931	      0.94093521	     -7.20759994	      9.95895497	    -14.69274291	     -6.60141672	     46.79203113	     46.79203113	     11.23274511	    -17.67311544	      0.90339581	     -9.26462459	      8.99684652	      1.24167629	      2.55609485	    -16.28453408	    -15.66348238	     41.51716024	     46.08441450	      0.00000000	      0.00000000	     15.49231967	    -11.21651534	    -10.17141193	     63.93534617	     47.43928209	      0.00000000	      0.00000000
      1.08285714	     -1.95549876	     -6.14797101	     -4.59772108	      1.03136360	      0.93111468	      0.54651188	     11.59828766	      5.35876440	    -11.98750542	     16.34401192	     16.34401192	      7.94554499	      0.69509486	     -7.31121686	     12.10834276	    -15.01384236	     -5.26629976	     50.44984278	     50.44984278	     10.87362323	    -17.89700364	      4.12063225	     -9.41542787	      8.94415932	      1.39345920	      3.39340626	    -16.96831538	    -15.85740435	     43.17913151	     46.02098821	      0.00000000	      0.00000000	     15.17444873	    -10.64952050	     -9.43349475	     59.62726803	     47.32664540	      0.00000000	      0.00000000
      1.10042857	     -1.82160369	     -6.25668726	     -4.05454179	      1.03030501	      0.93097820	      0.54899750	     11.17485867	      5.58562683	    -12.33986831	     16.40866141	     16.40866141	      8.28031297	      0.44410550	     -7.38189399	     14.06899326	    -15.49359970	     -4.24886270	     53.43732186	     53.43732186	      9.68009311	    -18.30832613	      4.67341815	     -9.70159552	      8.97775232	      1.13024531	      4.93654835	    -17.51372517	    -16.02980433	     44.15367752	     46.00130013	      0.00000000	      0.00000000	     13.73749249	    -10.32101425	     -9.12629687	     57.63977800	     47.26431000	      0.00000000	      0.00000000
      1.11800000	     -1.81945074	     -6.22917455	     -3.51224683	      1.02894696	      0.93056859	      0.55129829	     11.05361361	      5.67034306	    -12.51780830	     16.70706827	     16.70706827	      8.73433135	     -0.09218618	     -7.43538533	     16.12379821	    -15.78483387	     -3.39315232	     55.95931873	     55.95931873	      9.20873685	    -18.53582913	      6.39281177	     -9.73055273	      8.86632043	      0.41031242	      6.69065015	    -17.65597763	    -16.04358075	     45.56118414	     45.95646147	      0.00000000	      0.00000000	     12.63237039	    -10.31543828	     -8.81262374	     53.61796084	     47.17986809	      0.00000000	      0.00000000
      1.13557143	     -1.64296950	     -6.08764135	     -3.08541375	      1.02744372	      0.93048620	      0.55336554	     10.83229384	      5.59857602	    -12.58637000	     17.16281913	     17.16281913	      9.29109844	     -0.54805391	     -7.04809907	     17.92167083	    -15.81903706	     -2.71997546	     58.07418827	     58.07418827	     10.59989539	    -18.62527073	     12.55687998	     -9.96199612	      8.62912303	      1.49508336	      7.01770565	    -18.65485533	    -16.07993365	     47.46490004	     45.87827021	      0.00000000	      0.00000000	     14.01523742	     -9.10007009	     -8.22907996	     45.55796377	     47.05526653	      0.00000000	      0.00000000
      1.15314286	     -1.55242323	     -6.04179628	     -2.63913660	      1.02575274	      0.93008156	      0.55543471	     10.74302375	      5.64914212	    -12.62936539	     17.66178616	     17.66178616	      9.85129608	     -1.16326193	     -6.69258289	     19.57284382	    -16.13219657	     -2.46104024	     59.29197096	     59.29197096	     11.03730812	    -18.88527607	     14.97878547	    -10.19553936	      8.46410189	      1.53003106	      8.32217388	    -18.97185627	    -16.58252458	     49.35600498	     45.83076600	      0.00000000	      0.00000000	     13.50684074	     -8.72586565	     -7.73874273	     40.93652381	     46.96168302	      0.00000000	      0.00000000
